PathFileType	4	(X/Y/Z)	C:/Users/beibeiliu/ov580/test_trc/User3\sequence.4_training_dense_left.trc
DataRate	CameraRate	NumFrames	NumMarkers	Units	OrigDataRate	OrigDataStartFrame	OrigNumFrames
120	120	19	19	mm	120	157	209
Frame#	Time	ThumbCMC			ThumbMCP			ThumbIP			ThumbTip			IndexMCP			IndexPIP			IndexTip			MiddleMCP			MiddlePIP			MiddleTip			RingMCP			RingPIP			RingTip			PinkyMCP			PinkyPIP			PinkyTip			BackHand1			BackHand2			BackHand3	
		X0	Y0	Z0	X1	Y1	Z1	X2	Y2	Z2	X3	Y3	Z3	X4	Y4	Z4	X5	Y5	Z5	X6	Y6	Z6	X7	Y7	Z7	X8	Y8	Z8	X9	Y9	Z9	X10	Y10	Z10	X11	Y11	Z11	X12	Y12	Z12	X13	Y13	Z13	X14	Y14	Z14	X15	Y15	Z15	X16	Y16	Z16	X17	Y17	Z17	X18	Y18	Z18	
156	1.3	-131.426	-83.2538	37.96	-113.866	-101.413	27.8676	-91.3037	-120.714	16.0532	-78.0236	-136.231	10.8881	-141.164	-112.259	-37.169	-133.302	-130.086	-54.8992	-129.152	-151.833	-68.514	-164.786	-108.685	-47.2794	-159.842	-127.227	-66.465	-158.106	-153.942	-86.2822	-188.464	-106.754	-39.239	-185.982	-123.73	-59.0225	-190.855	-145.798	-75.74	-204.273	-103.721	-19.5756	-210.457	-115.985	-38.7381	-220.889	-131.104	-56.1069	-186.572	-73.0825	1.32596	-187.282	-55.868	26.7524	-157.565	-67.1626	13.498	
157	1.30833	-128.334	-78.3192	44.0911	-110.524	-97.0095	36.8106	-86.5281	-116.321	24.2004	-74.554	-132.721	16.5991	-131.327	-118.008	-26.8755	-124.174	-138.243	-42.1481	-116.457	-162.51	-55.3993	-160.672	-117.821	-36.2699	-150.761	-140.372	-56.5047	-147.984	-170.998	-73.2619	-184.541	-120.062	-29.5477	-180.779	-139.013	-47.547	-182.698	-165.083	-61.9644	-202.722	-116.94	-14.941	-205.817	-132.282	-29.8326	-208.001	-153.373	-42.8569	-187.946	-81.4602	3.31554	-191.306	-61.2869	27.3154	-153.094	-68.545	18.5045	
158	1.31667	-129.782	-76.643	44.9606	-105.296	-92.342	38.1243	-86.519	-107.864	30.3459	-68.5502	-120.678	25.1986	-126.682	-122.052	-21.099	-114.948	-142.975	-33.3147	-107.22	-165.022	-42.6823	-149.85	-127.252	-31.6958	-142.703	-145.92	-44.2768	-135.999	-176.021	-57.1275	-175.94	-130.707	-24.6071	-170.824	-149.592	-37.574	-171.655	-174.145	-46.8418	-197.289	-127.895	-8.21739	-200.907	-145.5	-17.9985	-199.675	-171	-28.104	-184.439	-85.3934	10.2387	-192.826	-64.7014	28.7151	-153.632	-69.1679	18.8034	
159	1.325	-129.89	-68.1912	49.1011	-103.587	-83.9643	39.7933	-80.3462	-97.8342	30.4241	-62.1665	-108.045	27.3215	-118.559	-117.824	-11.4323	-104.074	-142.922	-25.5818	-97.8658	-162.722	-30.7841	-146.069	-128.302	-21.942	-134.751	-152.98	-35.6892	-120.845	-180.869	-44.7396	-168.831	-135.04	-13.746	-158.925	-155.922	-26.9471	-154.316	-182.598	-33.0536	-187.037	-133.674	-0.501727	-185.857	-154.466	-8.89815	-184.256	-175.83	-16.5681	-183.674	-87.5273	11.0522	-192.998	-67.8273	27.5218	-156.521	-69.6468	19.3426	
160	1.33333	-133.132	-62.0215	49.8743	-105.919	-74.3075	41.7645	-78.3966	-85.7675	33.8376	-57.0202	-94.6018	28.4033	-115.741	-117.38	-10.0595	-98.7867	-135.951	-18.2516	-84.9215	-159.679	-24.5554	-135.292	-129.466	-18.2079	-122.337	-152.032	-27.6739	-107.434	-182.214	-35.6781	-158.921	-134.262	-7.60161	-151.042	-161.966	-19.8412	-142.256	-183.215	-22.8635	-181.045	-137.52	6.62999	-176.603	-163.315	-2.25291	-167.962	-184.449	-6.88069	-176.262	-90.5068	9.55063	-189.053	-68.4838	29.2403	-154.619	-64.129	20.6587	
161	1.34167	-133.379	-55.153	47.4339	-102.336	-62.2855	41.9882	-77.0964	-75.266	33.2819	-55.7985	-80.4137	29.6145	-108.146	-109.093	-6.25209	-91.1878	-127.281	-14.5159	-77.293	-153.081	-19.7053	-130.917	-125.298	-12.6327	-115.059	-149.026	-22.6811	-96.6711	-174.772	-28.9178	-151.251	-136.134	-6.798	-137.605	-156.105	-13.8315	-127.26	-184.041	-16.5363	-172.12	-137.115	10.1976	-163.611	-158.55	4.12359	-158.839	-182.956	2.18336	-174.522	-91.9676	10.5071	-191.726	-72.9594	26.6174	-156.815	-65.5299	18.6005	
162	1.35	-134.801	-48.9863	44.1169	-103.573	-53.0453	38.7461	-77.0598	-59.2382	34.2561	-58.394	-66.1658	29.8664	-103.503	-101.754	-6.64068	-84.9504	-124.839	-14.8054	-68.179	-143.745	-18.3925	-121.817	-122.446	-13.4246	-100.641	-142.338	-20.644	-81.5469	-164.747	-24.1106	-139.325	-133.168	-5.25301	-129.106	-153.306	-10.1989	-115.497	-176.353	-12.0024	-162.578	-137.939	9.31101	-154.953	-159.142	7.50151	-142.216	-182.322	6.02636	-172.913	-89.3994	10.802	-189.27	-71.6856	24.1656	-154.06	-57.4933	18.4155	
163	1.35833	-136.735	-39.634	41.6174	-110.808	-41.4385	37.9383	-78.3088	-46.1474	28.527	-60.4724	-47.4646	27.9047	-101.789	-93.2069	-6.19356	-81.1856	-112.192	-14.1074	-63.9567	-127.523	-17.1157	-115.371	-112.639	-11.8087	-97.7656	-131.381	-17.1752	-71.6639	-149.757	-20.6606	-136.046	-124.675	-1.91488	-119.519	-142.42	-8.54041	-99.364	-164.507	-9.4135	-153.058	-130.675	12.6696	-141.581	-150.627	9.24649	-130.445	-169.71	10.3744	-173.013	-86.1685	9.7641	-189.517	-66.8164	24.9038	-157.116	-52.1936	18.3136	
164	1.36667	-142.924	-33.2451	38.5528	-116.123	-31.5379	34.4988	-87.1869	-34.6506	24.8359	-66.1683	-29.7621	21.5523	-99.8217	-81.4182	-9.29033	-77.9142	-94.9708	-15.9286	-60.4704	-110.168	-17.2941	-112.681	-99.5588	-11.7963	-89.4176	-118.141	-17.8164	-62.4704	-136.209	-21.0048	-129.131	-116.484	-2.10878	-112.56	-134.788	-8.20175	-90.7862	-148.553	-8.57266	-148.385	-125.482	14.7509	-128.723	-141.724	9.70751	-111.592	-158.577	9.30096	-171.731	-84.294	11.9463	-195.016	-68.8085	25.6933	-160.332	-50.072	13.1257	
165	1.375	-147.913	-24.1716	33.2946	-121.994	-22.7175	28.005	-91.9329	-20.5129	17.8154	-72.0631	-16.0109	13.6043	-104.556	-67.7491	-12.7649	-78.8158	-83.9911	-19.8566	-58.7662	-95.9782	-22.6775	-111.374	-92.8941	-14.7545	-83.95	-104.78	-22.4651	-55.3916	-113.941	-26.3257	-122.113	-105.11	-4.92475	-101.473	-121.152	-11.84	-80.6812	-132.879	-12.9445	-137.962	-117.149	11.8339	-124.103	-134.068	10.4683	-102.976	-144.091	10.2589	-172.526	-82.6449	9.27734	-192.343	-68.3806	21.9424	-167.495	-48.6896	10.3012	
166	1.38333	-153.116	-15.5561	28.3971	-127.152	-8.72847	21.5427	-98.9803	-2.30183	9.13375	-79.9786	-2.56941	4.12915	-108.173	-56.8468	-18.4375	-80.6054	-67.7007	-28.1628	-54.8551	-74.5109	-33.5817	-109.228	-81.697	-22.2702	-83.4896	-89.3997	-29.2099	-54.084	-97.8306	-35.5004	-122.965	-99.7563	-7.45995	-99.4939	-107.084	-15.4033	-76.6337	-120.465	-17.4387	-132.144	-112.82	10.6788	-111.629	-121.205	6.71412	-94.3474	-134.433	6.33932	-171.915	-79.7833	8.63301	-192.458	-65.6489	23.5222	-167.476	-41.2617	7.21069	
167	1.39167	-160.968	-8.66899	24.9096	-132.317	-1.14626	12.3353	-109.891	10.5821	2.22771	-89.0191	16.4848	-6.00107	-109.617	-47.7027	-29.9981	-84.5519	-54.6995	-39.0608	-60.1284	-59.6017	-44.5548	-112.503	-73.5762	-28.0269	-88.011	-77.2721	-37.5307	-56.719	-85.3555	-46.4955	-121.86	-87.0781	-12.7314	-97.9479	-98.1406	-23.0926	-72.0883	-107.611	-27.6339	-130.012	-100.956	5.99184	-110.457	-114.423	3.50373	-90.3411	-125.534	0.570342	-169.108	-75.7562	4.17769	-191.601	-65.233	22.9796	-170.548	-38.008	3.20254	
168	1.4	-162.61	-7.23126	18.3474	-141.637	7.01613	9.11588	-115.981	15.6707	-6.95912	-100.337	29.3427	-15.0252	-117.107	-37.8642	-37.3253	-91.459	-43.3777	-50.0897	-68.5249	-46.974	-58.2201	-116.172	-62.6251	-37.3114	-93.1968	-67.5235	-48.9399	-60.5214	-72.0045	-61.9094	-118.799	-82.4379	-22.3152	-98.0948	-86.9959	-32.6836	-75.9013	-94.9902	-37.7495	-128.709	-95.7605	0.52315	-106.992	-105.83	-6.57453	-88.9227	-112.88	-9.13897	-170.323	-69.8703	2.57425	-190.852	-64.9957	21.2522	-177.789	-33.6981	-0.295475	
169	1.40833	-169.441	1.16665	18.476	-144.965	8.64596	2.22049	-123.845	20.7725	-14.0643	-110.292	33.5927	-20.9417	-125.464	-30.3052	-44.0727	-102.113	-30.1469	-59.6033	-80.5771	-32.9209	-69.2032	-125.848	-58.482	-43.3319	-100.07	-56.7896	-60.6257	-73.9314	-60.3774	-72.5892	-128.565	-75.0974	-27.3661	-106.253	-85.4395	-39.9321	-78.0786	-92.1836	-50.0378	-130.902	-88.3096	-8.60368	-111.352	-101.709	-11.854	-91.424	-108.919	-17.5145	-173.179	-64.0376	-0.560997	-195.471	-58.9924	18.5198	-182.034	-32.3858	-1.85957	
170	1.41667	-171.637	2.48029	13.5753	-152.598	18.3009	1.06318	-134.498	28.9191	-14.6064	-117.271	40.6896	-28.0046	-132.794	-26.4275	-50.9112	-114.117	-25.8343	-66.3404	-92.2138	-27.9841	-80.3814	-133.611	-53.5372	-51.5418	-111.084	-50.466	-70.2472	-84.6708	-57.1355	-81.6737	-131.707	-73.9758	-36.3437	-111.1	-78.2079	-50.7853	-89.6738	-83.0924	-58.6928	-136.821	-87.8999	-11.9813	-118.352	-93.5518	-20.9996	-93.2315	-101.522	-29.4042	-176.556	-64.6984	-0.940087	-196.983	-60.2624	19.3563	-187.639	-29.7691	-1.2222	
171	1.425	-177.017	4.54193	13.7939	-156.993	16.4452	-1.68028	-139.074	28.8432	-21.7229	-127.793	41.1088	-30.9728	-142.395	-22.238	-56.2774	-125.404	-23.8332	-72.5685	-105.337	-24.06	-90.607	-143.389	-49.1571	-56.2311	-124.808	-47.9681	-74.0878	-95.486	-50.1024	-93.8657	-140.787	-66.8234	-40.7147	-123.326	-73.7407	-55.3524	-96.074	-78.7498	-70.874	-141.451	-83.3992	-16.9157	-121.879	-90.8336	-30.4707	-102.094	-95.1032	-38.2433	-178.401	-63.4894	-6.22112	-200.228	-57.2871	20.6371	-191.074	-24.2532	-1.06986	
172	1.43333	-181.854	4.41653	11.871	-165.722	21.7594	-4.79322	-150.199	32.2272	-27.2497	-139.934	48.818	-36.8683	-155.534	-20.5667	-56.7086	-138.694	-21.1418	-78.8104	-121.957	-17.4103	-96.7445	-151.825	-49.2222	-57.1338	-133.764	-45.9453	-81.1295	-105.588	-47.7626	-102.957	-145.228	-64.7505	-47.6012	-127.016	-70.4257	-63.9356	-104.58	-75.6474	-76.3958	-142.329	-82.8248	-20.5481	-122.523	-87.0323	-36.2629	-100.564	-92.0649	-47.9842	-182.408	-58.931	-7.85318	-198.632	-59.6853	19.1182	-196.102	-30.194	0.0518636	
173	1.44167	-189.161	-0.071717	7.87967	-174.422	16.596	-12.1867	-164.447	35.6575	-34.642	-155.483	46.579	-45.9439	-165.496	-24.8232	-60.3098	-149.248	-21.0414	-87.3639	-133.845	-22.0277	-102.982	-158.421	-49.7129	-60.5333	-141.189	-47.2622	-87.0098	-117.325	-43.9366	-110.071	-150.382	-63.5872	-45.9286	-132.732	-71.5855	-64.5735	-111.696	-68.0189	-84.4374	-142.684	-78.3708	-25.6189	-123.315	-80.9838	-39.908	-102.027	-85.0435	-51.856	-186.971	-60.722	-6.08739	-196.337	-60.1806	18.5247	-201.805	-29.9851	-4.79857	
174	1.45	-197.707	-2.77272	5.05373	-187.191	13.1296	-16.6845	-180.542	33.4046	-39.8511	-171.741	42.0351	-53.9829	-178.204	-25.733	-62.6333	-161.041	-25.7827	-89.0474	-145.303	-20.8964	-110.028	-165.05	-52.1347	-63.0517	-148.389	-49.9857	-89.9034	-130.411	-46.4087	-110.975	-151.404	-67.8246	-48.1476	-136.561	-65.9786	-70.1345	-115.405	-65.915	-86.835	-142.219	-76.9792	-26.2936	-126.782	-76.9032	-42.2385	-104.978	-77.5504	-55.3339	-185.056	-68.1267	-6.51746	-196.539	-65.4806	21.3865	-206.851	-36.6599	-2.4071	
